<svg id="Layer_1" data-name="Layer 1" xmlns="http://www.w3.org/2000/svg" viewBox="0 0 1163.42 355.82"><defs><style>.cls-1,.cls-2{fill:#172332;}.cls-1{stroke:#172332;stroke-linejoin:round;stroke-width:30px;}.cls-3{fill:#2e4352;}.cls-4{fill:#65717e;}.cls-5{fill:#e07e44;}.cls-6{fill:#fbb03b;}.cls-7{fill:#ed1e79;}.cls-8{fill:#009245;}.cls-9{fill:#29abe2;}.cls-10{fill:#e6e6e6;}</style></defs><title>HelioPy</title><rect class="cls-1" x="16.16" y="59.27" width="966.76" height="234.53"/><circle class="cls-2" cx="986.78" cy="179.17" r="176.65"/><circle class="cls-3" cx="989.27" cy="179.75" r="141.73" transform="translate(231.2 840.27) rotate(-51.36)"/><ellipse class="cls-4" cx="989.84" cy="181.12" rx="100.52" ry="103.12" transform="translate(767.22 1162.46) rotate(-87.59)"/><circle class="cls-5" cx="990.01" cy="180.61" r="93.07" transform="translate(767.89 1162.14) rotate(-87.59)"/><circle class="cls-6" cx="874.11" cy="98.27" r="18.43"/><circle class="cls-7" cx="1083.1" cy="282.28" r="17.01"/><circle class="cls-8" cx="1076.24" cy="71.27" r="15.59"/><circle class="cls-9" cx="862.41" cy="245.89" r="12.76"/><circle class="cls-6" cx="989.54" cy="179.8" r="73.5"/><path class="cls-6" d="M75.12,101h36.12v50.82H152V101h36.12v136.5H152V183.28H111.24v54.18H75.12Z"/><path class="cls-6" d="M260.34,129.94c31.08,0,45.78,22.68,45.78,50.82A65.46,65.46,0,0,1,304.65,195H244.8c3.36,13.44,12.6,17.64,24.36,17.64,7.14,0,13.86-2.1,21.42-6.3l11.76,21.42A70.74,70.74,0,0,1,264.12,240c-30.66,0-54.18-20.16-54.18-55C209.94,150.94,234.72,129.94,260.34,129.94Zm15.12,43.26c0-8.82-3.36-16-14.28-16-8,0-14.7,4.41-16.8,16Z"/><path class="cls-6" d="M325.86,91.3H362V201.76c0,7.14,3.36,9.24,5.88,9.24a13,13,0,0,0,3.78-.42l4.2,26.46c-3.78,1.68-9.66,2.94-17.64,2.94-24.36,0-32.34-16-32.34-39.48Z"/><path class="cls-6" d="M386.34,101.38c0-10.5,8.4-18.06,20.16-18.06s20.16,7.56,20.16,18.06-8.4,18.06-20.16,18.06S386.34,111.88,386.34,101.38Zm2.1,31.08h36.12v105H388.44Z"/><path class="cls-6" d="M495.53,129.94c26.88,0,52.08,20.16,52.08,55s-25.2,55-52.08,55-52.08-20.16-52.08-55S468.65,129.94,495.53,129.94Zm0,81.06c10.92,0,15.12-10.08,15.12-26s-4.2-26-15.12-26S480.42,169,480.42,185,484.61,211,495.53,211Z"/><path class="cls-10" d="M571.55,100.12h46.2c30,0,52.08,10.5,52.08,42.42,0,30.45-22.68,44.52-52.08,44.52H595.91v50.4H571.55Zm44.1,67.41c20.58,0,30.24-8.19,30.24-25,0-17.22-10.29-22.89-30.24-22.89H595.91v47.88Z"/><path class="cls-10" d="M698.39,260.35c10.92,0,17.22-7.35,20.58-17.64l1.89-6.51L680.33,134.35H704.9L722.75,185c2.94,9,5.88,19.32,9,29h.84c2.52-9.45,5.25-19.74,7.77-29l15.54-50.61h23.31L741.86,242.08c-8.61,23.31-19.32,37.8-41.79,37.8a40.11,40.11,0,0,1-13.44-2.1l4.41-18.9A25.35,25.35,0,0,0,698.39,260.35Z"/></svg>