<svg id="Layer_1" data-name="Layer 1" xmlns="http://www.w3.org/2000/svg" viewBox="0 0 1093.04 355.82"><defs><style>.cls-1{fill:#172332;}.cls-2{fill:#2e4352;}.cls-3{fill:#65717e;}.cls-4{fill:#e07e44;}.cls-5{fill:#fbb03b;}.cls-6{fill:#ed1e79;}.cls-7{fill:#009245;}.cls-8{fill:#29abe2;}.cls-9{fill:#e6e6e6;}</style></defs><title>HelioPy</title><circle class="cls-1" cx="915.63" cy="177.65" r="176.65"/><circle class="cls-2" cx="918.12" cy="178.22" r="141.73" transform="translate(205.66 784.12) rotate(-51.36)"/><ellipse class="cls-3" cx="918.69" cy="179.6" rx="100.52" ry="103.12" transform="translate(700.59 1089.91) rotate(-87.59)"/><circle class="cls-4" cx="918.86" cy="179.09" r="93.07" transform="translate(701.27 1089.6) rotate(-87.59)"/><circle class="cls-5" cx="802.96" cy="96.75" r="18.43"/><circle class="cls-6" cx="1011.96" cy="280.75" r="17.01"/><circle class="cls-7" cx="1005.09" cy="69.75" r="15.59"/><circle class="cls-8" cx="791.26" cy="244.37" r="12.76"/><circle class="cls-5" cx="918.4" cy="178.27" r="73.5"/><path class="cls-5" d="M3,98.43H39.09v50.82H79.84V98.43H116v136.5H79.84V180.75H39.09v54.18H3Z"/><path class="cls-5" d="M188.19,127.41c31.08,0,45.78,22.68,45.78,50.82a65.46,65.46,0,0,1-1.47,14.28H172.65C176,206,185.25,210.16,197,210.16c7.14,0,13.86-2.1,21.42-6.3l11.76,21.42A70.73,70.73,0,0,1,192,237.46c-30.66,0-54.18-20.16-54.18-55C137.79,148.41,162.57,127.41,188.19,127.41Zm15.12,43.26c0-8.82-3.36-16-14.28-16-8,0-14.7,4.41-16.8,16Z"/><path class="cls-5" d="M253.71,88.77h36.12V199.24c0,7.14,3.36,9.24,5.88,9.24a13,13,0,0,0,3.78-.42l4.2,26.46c-3.78,1.68-9.66,2.94-17.64,2.94-24.36,0-32.34-16-32.34-39.48Z"/><path class="cls-5" d="M314.19,98.85c0-10.5,8.4-18.06,20.16-18.06s20.16,7.56,20.16,18.06-8.4,18.06-20.16,18.06S314.19,109.35,314.19,98.85Zm2.1,31.08h36.12v105H316.29Z"/><path class="cls-5" d="M423.39,127.41c26.88,0,52.08,20.16,52.08,55s-25.2,55-52.08,55-52.08-20.16-52.08-55S396.51,127.41,423.39,127.41Zm0,81.06c10.92,0,15.12-10.08,15.12-26s-4.2-26-15.12-26-15.12,10.08-15.12,26S412.47,208.48,423.39,208.48Z"/><path class="cls-9" d="M499.41,97.59h46.2c30,0,52.08,10.5,52.08,42.42,0,30.45-22.68,44.52-52.08,44.52H523.77v50.4H499.41ZM543.51,165c20.58,0,30.24-8.19,30.24-25,0-17.22-10.29-22.89-30.24-22.89H523.77V165Z"/><path class="cls-9" d="M626.25,257.83c10.92,0,17.22-7.35,20.58-17.64l1.89-6.51L608.18,131.82h24.57l17.85,50.61c2.94,9,5.88,19.32,9,29h.84c2.52-9.45,5.25-19.74,7.77-29l15.54-50.61H707.1L669.72,239.56c-8.61,23.31-19.32,37.8-41.79,37.8a40.1,40.1,0,0,1-13.44-2.1l4.41-18.9A25.31,25.31,0,0,0,626.25,257.83Z"/></svg>